<?xml version="1.0" encoding="UTF-8"?>
<!-- Generator: Adobe Illustrator 16.0.0, SVG Export Plug-In . SVG Version: 6.00 Build 0)  -->
<!DOCTYPE svg PUBLIC "-//W3C//DTD SVG 1.1//EN" "http://www.w3.org/Graphics/SVG/1.1/DTD/svg11.dtd">
<svg version="1.1" xmlns="http://www.w3.org/2000/svg" xmlns:xlink="http://www.w3.org/1999/xlink" x="0px" y="0px" width="841.89px" height="317.48px" viewBox="0 0 841.89 317.48" enable-background="new 0 0 841.89 317.48" xml:space="preserve">
<g>
	<path fill="#EF8B46" d="M421.154,57.973c-0.139-0.023-0.326-0.36-0.49-0.438c-0.133-0.086,0.193-0.307,0.193-0.307   s0.297-0.448,0.463-0.525c0.139-0.028,0.303,0.525,0.578,0.553c0.273,0.081,0.273-0.553,0.273-0.86c0-0.276,0.219-0.276,0.574-0.33   c0.414-0.088-0.051-0.308,0-0.674c0.117-0.437,0.273-0.437,0.527-0.768c0.246-0.308,0.246-0.587,0.438-0.502   c0.135,0.108,0.305,0.084,0.602,0.108c0.248,0.056,0.357,0.086,0.854,0.141c0.441,0.081,0.604-0.362,0.93-0.444   c0.412-0.083,0.412,0.195,0.439,0.697c0.031,0.492-0.303,0.415-0.518,0.578c-0.271,0.254-0.686,0.532-0.77,0.775   c-0.139,0.308-0.139,0.611-0.273,0.803c-0.029,0.172,0.357,0.278,0.633,0.117c0.215-0.194,0.41-0.117,0.764,0   c0.41,0.105,0.824,0.055,1.316,0c0.469-0.033,0.469-0.033,0.801,0.439c0.275,0.389-0.197,0.36-0.357,0.724   c-0.139,0.331-0.086,0.776-0.467,1.217c-0.41,0.361-0.496,0.916-0.631,1.224c-0.113,0.387,0.162,0.279,0.162,0.502   c0,0.213-0.275,0-0.49,0c-0.17,0-0.357,0.333-0.473,0.44c-0.188,0.17-0.078,0.276,0.334,0.357c0.414,0.03,0.215-0.357,0.467-0.357   c0.221,0,0.771,0.416,1.098,0.694c0.357,0.306,0.572,0.917,0.572,1.083c0,0.276,0.137,1.965,0.908,2.275   c0.715,0.327,1.316,1.108,1.316,1.469c0,0.277,0,0.471,0.141,0.717c0.105,0.254-0.141,0.417-0.141,0.417s0.385,0.39,0.66,0.809   c0.219,0.414,0.25,0.856,0,0.856c-0.328,0-0.328,0.446-0.164,0.639c0.164,0.029,0.414,0,0.551-0.192   c0.135-0.115,0.355-0.31,0.654-0.227c0.328,0.111,0.689,0.227,1.238,0.448c0.523,0.303,0,0.494,0,1.135   c0,0.692-0.109,0.668-0.359,0.917c-0.189,0.278-0.354,0.468-0.762,0.607c-0.416,0.137-0.252,0.445-0.748,0.721   c-0.41,0.195,0,0.195,0.549,0.443c0.549,0.2,0.824-0.278,0.961,0c0.113,0.277,0,0.36-0.518,0.555   c-0.467,0.199-0.109,0.308-0.66,0.502c-0.523,0.167-0.658,0.274-0.824,0.274c-0.135-0.056-0.355-0.056-1.092-0.191   c-0.773-0.141-0.637,0-0.965,0c-0.334,0-0.609,0.278-0.938,0.362c-0.381,0.194-0.381,0.36-0.824,0.501   c-0.434,0-0.572-0.307-0.707-0.419c-0.141-0.115-1.047,0.112-1.129,0.554c-0.029,0.442-0.305,0.526-0.742,0.391   c-0.465-0.194-0.936-0.11-1.457,0.358c-0.303,0.25-0.326,0.25-0.357,0.25c-0.051,0.113-0.275,0.137-0.549-0.057   c-0.244-0.221-0.023-0.085-0.158,0c-0.086,0.057-0.197,0.057-0.221,0c-0.084-0.193,0.221-0.47,0.379-0.31   c0.117,0.065,0.443-0.353,0.498-0.52c0.029-0.195,0-0.227,0.219-0.503c0.248-0.279,0.359-0.33,0.635-0.608   c0.299-0.223,0.273-0.359,0.273-0.359l0.189-0.226c0.301-0.194,0,0,0.109-0.194c0.113-0.3,0.275-0.3,0.602-0.248   c0.359,0,0.662,0.165,1.076,0.088c0.434-0.088,0.848-1.25,0.572-0.644c-0.354,0.556-0.385-0.112-0.824,0   c-0.35,0.059-0.35,0.195-0.602,0c-0.223-0.275-0.328-0.275-0.328-0.275s-0.521,0-0.496-0.309c0.082-0.276-0.273-0.053-0.602,0   c-0.357,0.117-0.416,0.418-0.605,0.117c-0.273-0.362-0.189-0.254-0.443-0.45c-0.156-0.133-0.156-0.133,0.084-0.36   c0.359-0.192,0.498-0.192,0.795-0.384c0.357-0.17,0.414-0.276,0.662-0.472c0.385-0.165,0.223-0.359,0.301-0.667   c0.113-0.277-0.078-0.362-0.109-0.609c-0.082-0.419-0.654,0.169-0.93,0.247c-0.252,0.031,0-0.218,0.49-0.666   c0.471-0.36,0.195-0.22,0-0.36c-0.215-0.137-0.215-0.555-0.215-0.555l0.215-0.439c0,0,0.332,0.278,0.662,0.278   c0.297,0.161,0.572,0.161,0.709,0.161c0.139,0,0.471-0.023,0.664-0.439c0.188-0.362,0-0.277-0.115-0.67   c-0.188-0.277,0.139-0.469,0.414-0.746c0.305-0.335,0.111-0.449-0.08-0.449c-0.195,0-0.549-0.245-0.549-0.245   s-0.271-0.471-0.334-0.831c-0.053-0.306,0.139-0.586,0.361-0.778c0.188-0.165-0.111-0.246-0.361-0.165   c-0.299,0-0.436,0.195-0.822,0.195c-0.354,0-0.49,0.246-0.764,0.082c-0.252-0.136-0.578-0.082-0.854-0.358   c-0.246-0.363,0.082-0.394,0.275-0.669c0.191-0.357,0.379-0.723,0.496-0.888c0.082-0.14-0.17-0.225-0.363-0.663   c-0.189-0.365-0.326,0-0.326,0s-0.58,0.359-0.738,1.054c0,0.219-0.305,0.387-0.361,0c0-0.226,0.164-0.778,0.164-0.947   c0.057-0.275-0.848,0.362-1.07,0l0.055-0.412c0.389-0.25,0.549-0.612,0.717-0.72c0.053-0.202,0.355-0.947,0.355-0.947   s-0.057,0.03-0.164,0.03c-0.168,0.109-0.635,0.279-1.016,0.387c-0.604,0.051,0.053-0.387,0.082-0.579   c0.08-0.254,0.139-0.641,0.217-0.723c0.082-0.194,0.357-0.388,0.578-0.471c0.139-0.055,0.027-0.446,0.027-0.446l-0.467-0.056   C421.705,58.612,421.32,58.112,421.154,57.973z M663.211,181.206c-0.059-0.172-0.059-0.363-0.059-0.609   c-1.395-0.365-2.549-1.665-3.127-2.249c-0.604-0.419-0.99-1.749-1.426-1.524c-0.523,0.275-1.074,1.524-1.838,2.469   c-0.771,0.939-0.41,1.11-2.775,2.221c-1.008,0.427-1.432,1.176-1.771,1.916c2.178,3.207,4.533,6.556,6.91,9.787   c0.125-0.331,0.238-0.694,0.32-1.138c0.361-2.055,0.965-1.526,1.648-1.526c0.664-0.142,1.646-0.164,0.527-1.192   c-1.1-1-0.961-2.222-0.961-2.222c-0.992-2.298-0.414-3.437,0.709-4.715C661.918,181.896,662.688,181.513,663.211,181.206z    M448.605,101.487c-0.602-0.301-0.486-0.613-0.76-0.66c-1.102-0.45-0.854,1.156-1.354,0.88c-0.492-0.22-0.684-0.603-0.572,0.058   c0.164,0.666,0.686,1.366,0.549,1.833c-0.109,0.449-0.195,0.916-0.057,1.748c0.193,0.856,0.332,2.389,0.936,1.435   c0.633-0.879,0.633-0.963,0.982-0.983c0.443-0.086,0.666-0.086,0.551-1.283c-0.107-1.3-0.551-0.78-0.297-1.661   C448.881,102.042,449.27,101.983,448.605,101.487z M415.746,71.37c-0.156,0.143-0.297,0.333-0.52,0.45   c-0.188,0.053-0.461,0.159-0.602,0.242c-0.135,0.087,0.076,0.195,0.414,0.195c0.297-0.108,0.297,0,0.486,0   c0.197-0.024,0,0.275-0.463,0.329c-0.361,0.117-0.572,0.174-0.275,0.307c0.275,0.057,0.275,0.311,0.549,0.196   c0.254-0.108,0.936-0.503,0.602-0.14c-0.273,0.365-0.549,0.502-0.215,0.555c0.215,0.03,0.549-0.053,0.381,0   c-0.166,0.03-0.244,0.254-0.053,0.254c0.162,0,0.467,0.165,0.824,0c0.328-0.224,1.012-0.338,1.1-0.555   c0.055-0.167,0.463-0.311,0.736-0.5c0.275-0.171,0.363-0.446,0.797-0.471c0.473-0.084,0.473-0.254,0.852-0.254   c0.412,0.083,0.469,0.117,0.58,0.117c0.164,0,0.191-0.117,0.191-0.501c0-0.226,0.219-0.226,0.219-0.585   c0-0.331-0.082-0.331,0.139-0.695c0.217-0.498-0.113-1.024-0.059-1.271c0.029-0.336,0.059-0.557-0.109-0.81   c-0.189-0.276,0.029-0.916,0.168-0.916c0.135,0,0.352-0.556,0.41-0.632c0.025-0.137,0.328,0.277,0.385,0   c0.107-0.277,0.242-0.359,0.164-0.669c-0.057-0.331-0.221-0.416-0.332-0.442c-0.217,0-0.217-0.194-0.137-0.391   c0.137-0.054,0.031,0-0.191-0.36c-0.244-0.39-0.082-0.39-0.244-0.607c-0.168-0.224,0.08-0.334-0.527-0.277   c-0.572,0.083-0.848,0.166-0.9,0.277c-0.135,0.052,0.053-0.277,0-0.277c-0.135,0-0.607-0.332-0.607-0.332s-0.025,0.275-0.164,0.275   c-0.188,0.057-0.111,0.057-0.521,0.057c-0.355,0-0.793-0.057-0.848,0.137c-0.088,0.223,0.379,0.388,0,0.667   c-0.445,0.195-0.469,0.277-0.604,0.441c-0.168,0.196-0.139,0.279,0.135,0.391c0.193,0.111,0.689-0.391,0.629,0   c-0.023,0.39-0.137,0.554-0.248,0.554c-0.053,0-0.381,0-0.357,0.145c0,0.244,0.055,0.276-0.273,0.276c-0.299,0-0.52,0-0.848-0.032   c-0.41-0.084-0.609-0.084-0.744-0.084c-0.191,0-0.414-0.16-0.438,0.253c0,0.277-0.525,0.555-0.188,0.692   c0.297,0.163,0.76-0.061,0.76,0.163c0,0.362-0.135,0.416-0.273,0.416c-0.076,0-0.275,0.194-0.352,0.308   c-0.111,0.163-0.135,0.442,0.053,0.556c0.162,0.085,0.363,0.085,0.496,0.246c0.076,0.224,0.164,0.307,0.352,0.307   c0.197,0,0.391,0.056,0.549,0c0.141-0.083,0.359-0.083,0.359,0.056c0,0.109-0.191,0.192-0.275,0.192s-0.299-0.083-0.357,0   c-0.078,0.195,0,0.277-0.189,0.501c-0.162,0.192-0.361,0.362-0.496,0.722c-0.215,0.197-0.275,0.278-0.074,0.278   c0.209-0.081,0.379-0.278,0.682-0.278c0.246,0,0.436,0.08,0.52,0.08c0.137,0-0.52,0.086-0.631,0.198   C416.074,71.234,415.938,71.263,415.746,71.37z M415.174,107.42c0.174,0,0.256,0.194,0.332,0.567   c3.219-0.386,6.305,1.582,7.678,4.489c0.047-0.022,0.09-0.048,0.143-0.063c1.07-0.167,0.986-0.604,2.006-0.664   c1.152-0.059,1.314,0.061,1.922-0.13c0.551-0.147,0.824-0.035,1.533-0.808c0.719-0.786,0.99-0.727,0.99-0.727   c1.098-0.77,0.688-0.107,0.688-0.77c0-0.508,0.244-1.027,0.824-1.665c0.572-0.593,0.768-0.192,0.686-0.998   c-0.053-0.751-0.824-0.579-0.715-2.006c0.135-1.351,1.264-1.626,1.971-2.663c0.771-1.109,1.352-0.556,2.258-1.109   c0.902-0.603,1.346-1.712,1.346-1.712c0.105-0.698,0.105-1.667,0.244-2.92c0.084-1.241,0.768-1.023,1.76-1.072   c0.984-0.122,1.234-0.062,1.865,0.157c0.551,0.229,2.002,0.915,2.582,0.119c0.578-0.745,1.781-1.196,2.689-1.662   c0.932-0.365,1.754,1.047,2.906,1.07c1.268,0.038,1.848,2.222,1.848,2.222c0.273,1.023,0.76,1.145,1.941,2.086   c1.24,0.963,2.092,2.024,2.311,2.072c0.273,0.147,0.326,0.473,1.174,1.11c0.885,0.508,1.076,0.421,1.543,1.062   c0.463,0.581,0.715,0.444,1.48,1.022c0.686,0.557,0.662,0.728,1.043,1.282c0.391,0.491-0.219,1.193-0.244,1.709   c-0.055,0.424,0.107,0.314-0.113,1.561c-0.055,0.37-0.041,0.589-0.008,0.743c0.49-0.326,0.982-0.638,1.527-0.832   c0.006,0,0.012-0.012,0.02-0.023c0.359-0.339,0.441-0.615,0.854-1.531c0.385-0.854,0.385-0.604,0.465-1.024   c0-0.411,0.195-1.433-0.111-2.184c-0.354-0.673-0.193-0.998,0.031-1.312c0.244-0.276,0.244-0.074,0.713,0.204   c0.438,0.275,0.549,0,0.549,0.275c0.025,0.278,0.467,0.555,0.467,0.555s0.188-0.444,0.381-1.229   c0.193-0.751-0.602-0.361-1.258-0.832c-0.664-0.408-2.09-0.963-3.021-1.625c-0.936-0.593-0.715-0.785-1.568-1.282   c-0.848-0.468-1.893-1.411-2.357-2.107c-0.467-0.726-1.35-2.329-1.975-2.907c-0.609-0.556-1.352-0.975-1.404-1.665   c-0.053-0.723,0.141-0.557,0.244-0.999c0.137-0.473-0.273-0.386-0.104-1.089c0.133-0.662,1.064-0.721,1.973-0.662   c0.875,0.108,0.523,0.108,0.412,0.362c-0.109,0.3-0.273,0.359-0.221,1.192c0.082,0.942,0.473,0.773,0.771,0.942   c0.328,0.134-0.023-0.615,0.303-1.171c0.357-0.604,0.711-0.276,1.066,0.17c0.332,0.422,1.49,2.243,1.32,2.243   c-0.168,0-0.357,0.277-0.082,0.699c0.305,0.496,1.264,0.939,1.426,1.216c0.137,0.22,0.336,0.062,1.539,0.22   c1.236,0.119,0.602,0.998,0.906,1.191c0.137,0.194,1.51,0.257,1.51,0.257c0.326,0.105,2.279,2.604,2.498,2.771   c0.221,0.17-0.219,2.112-0.141,3.029c0.086,0.88,0.141,0.745,0.854,0.998c0.689,0.159,0.58,1.026,0.689,1.688   c0.164,0.556,1.812,1.796,2.006,2.712c0.217,1.007,0.572-0.13,1.18-0.047c0.574,0.162,0.213,0.326-0.334,0.473   c-0.201,0.072-0.295,0.13-0.389,0.203c0.955,0.021,1.846,0.037,2.877,0.074c0.572,0.012,1.264,0.024,1.863,0.035   c-0.027-0.301-0.016-0.564-0.174-0.868c-0.252-0.386-1.35-1.642-1.234-1.858c0.053-0.084,0.076-0.274-0.551-1.17   c-0.609-0.965-0.77-0.965-0.824-1.999c-0.137-1.109,0.137-0.386,0.604-0.556c0.328-0.158-0.029,0.279-0.113,0.505   c-0.055,0.278,0.633,0.255,0.961,0.727c0.332,0.495,0.387,0.495,0.746,0.358c0.33-0.082-0.197-0.142-0.307-0.395   c-0.107-0.192,0.168-0.16,0.443,0c0.326,0.142,0.467,0.395,0.686,0.188c0.217-0.238-0.359-0.349-0.492-0.49   c-0.141-0.134,0.217-0.134,0.654-0.11c0.439,0.087,0.357-0.023,0.191-0.228c-0.137-0.194-0.846-0.714-0.846-0.833   c-0.031-0.112,0.104,0.059,0.434-0.348c0.275-0.449,0.221-0.316,0.77-0.254c0.527,0.046,0.604,0.046,0.961-0.195   c0.443-0.312,1.129,0.195,1.562,0.301c0.273,0,0.746,0.615,1.098,0.773c0.334,0.084,0.609,0.061,1.375-0.39   c0.746-0.384,0.441-0.637,1.045-0.767c0.578-0.23,0.738,0.082,1.014,0.082c0.303,0,0.168-0.697,0.061-1.191   c-0.137-0.51-0.885-0.339-1.074-0.895c-0.109-0.495-0.658-2.325-0.494-2.94c0.135-0.664,1.016-1.183,1.096-1.714   c0.113-0.473,0.195-2.726,0.746-3.242c0.549-0.594,0.658,0.084,0.898-0.386c0.252-0.4,0.064-0.087,0.031-0.98   c-0.082-0.856,0.193-0.807,0.658-1.108c0.469-0.305,0.744-1.379,1.129-1.993c0.383-0.721,0.906-0.525,1.645-0.611   c0.742-0.109,0.602,0.415,0.443,0.832c-0.199,0.394,0,0.417,0.52,0.808c0.516,0.279,0.988-0.165,1.973-0.083   c1.047,0.193,0.303,0.362,0.414,0.832c0.113,0.435-0.656,0.279-1.1,0.518c-0.496,0.253-0.381,0.592,0.031,0.831   c0.467,0.312,0.822,0.253,1.098,0.81c0.244,0.579-0.111,1.049-0.029,1.412c0.082,0.312,0.877-0.134,1.895-0.64   c0.965-0.626,1.043-0.437,1.592-1.026c0.607-0.58,0.744-0.131,1.098-0.556c0.357-0.361-0.057-0.578-0.822-0.468   c-0.742,0.106-0.492,0.167-1.178,0.059c-0.719-0.169-0.662-0.939-0.854-1.217c-0.191-0.276-0.467-0.555-0.168-0.637   c0.359-0.112,0.992-0.31,1.51-0.782c0.473-0.414,0.824-0.469,1.982-0.718c1.152-0.308,0.244-0.084,0.963-0.752   c0.625-0.661,0.484-0.385,1.34-0.555c0.877-0.249,1.344-0.219,1.977-0.249c0.631-0.222,0.465,0,0.137,0.333   c-0.359,0.394-0.984,0.831-1.512,1.139c-0.492,0.388-0.326,0.388,0.193,1.082c0.525,0.777-0.105,0.253-0.686,1.139   c-0.549,0.879,0.166,0.745-0.08,1.158c-0.275,0.338-1.16-0.219-1.129,0.106c0,0.337-0.24,0.361,0.088,0.614   c0.355,0.278,0.709,1.136,1.395,1.256c0.662,0.156,1.158,0.35,2.174,0.943c0.98,0.556,0.297,0.998,1.068,1.19   c0.822,0.279,0.959,0.745,1.592,0.989c0.604,0.276,0.084,0.554,0.717,0.554c0.627,0,0.824,0.398,1.588,0.916   c0.824,0.591,0.824,2.197,0.684,3.45c-0.158,1.24-0.463,0.472-1.479,1.109c-1.043,0.663-1.068,0.243-1.891,0.025   c-0.885-0.231-1.982,0.384-2.609,0.218c-0.578-0.243-0.883-0.277-2.004-0.667c-1.078-0.443-1.234-0.214-1.678-0.443   c-0.357-0.171-1.07-0.494-1.592-0.689c-0.469-0.19-1.016-0.664-2.305-0.503c-1.293,0.229-2.088,0.394-2.662,0.419   c-0.549,0.084-2.225,1.641-2.525,1.884c-0.357,0.166-2.059-0.243-2.666-0.243c-0.574-0.034-1.016,0.243-1.016,0.409   c-0.025,0.254,0.115,0.495,0.25,1.051c0.139,0.557-0.631,0.782-1.508,0.869c-0.885,0.168-2.334-0.253-3.023-0.23   c-0.744,0.085-0.936,1.229-0.768,2.024c0.023,0.787,0.822,0.279,1.043,1.001c0.215,0.665-0.469,1.643-0.494,1.607   c0-0.05-0.25,0.082-0.168,0.589c0.053,0.556-0.082,0.521,0.441,0.724c0.225,0.121,0.42,0.203,0.588,0.288   c3.24,0.075,6.643,0.125,10.227,0.125h40.135c12.789,0,18.273-0.702,20.406-1.125c1.662-0.324,3.404-0.024,4.881,0.846   c0.998,0.592,1.92,1.397,2.664,2.361c0.941-1.096,2.01-1.724,2.912-2.082c0.82-0.341,1.695-0.497,2.578-0.497   c1.943,0,5.83,0.106,10.158,0.229c5.27,0.156,11.229,0.326,14.99,0.326c7.203,0,13.344-0.158,19.098-0.304   c5.168-0.132,10.033-0.251,15.051-0.251c10.504,0,19.32,2.533,26.156,6.9C626.855,69.55,581.834,33.381,522.24,14.231   c-0.631,0.385-4.473-0.412-5.078-0.412c-0.746,0-0.549-0.278-1.623-0.638c-0.984-0.339-1.123-0.339-2.166-0.231   c-1.074,0.035-1.15,0.557-1.975,1.194c-0.906,0.785-1.32,0.978-2.199,1.256c-0.822,0.278-0.629,0.604-1.262,1.519   c-0.58,0.869-1.293,0.809-1.457,1.195c-0.162,0.338,0.686,0.663-0.713,0.974c-1.371,0.172-0.906,0-0.744,0.691   c0.166,0.745-0.076,1.555-0.246,1.973c-0.191,0.521-1.646,0.69-2.225,0.58c-0.488-0.143-0.465-0.444-0.961-1.253   c-0.521-0.833-0.877-0.881-0.824-1.3c0.137-0.414,0.412-0.414,0.883-0.774c0.414-0.421,0.574-0.145,1.07-0.228   c0.496-0.157,0.027-0.279-0.445-1.16c-0.514-0.833-0.486-0.614-1.311-1.53c-0.801-0.88-1.098-0.158-2.143-0.024   c-1.074,0.143-1.539-0.407-1.783-0.301c-0.277,0.167,0.633,0.579,1.453,1.352c0.824,0.675,0.33,0.894,0.572,1.664   c0.275,0.783-0.49,1.977-0.217,2.855c0.273,0.87,0.41,0,1.096,0.399c0.664,0.3,0.197,2.52,0.115,3.295   c-0.053,0.721-0.525-0.11-1.045-0.498c-0.521-0.277-1.406-0.423-2.229-0.506c-0.791-0.107-0.516,0.833-1.311,1.593   c-0.799,0.857-0.771,0.791-1.375,1.549c-0.578,0.83-0.273,1.607,0.551,2.771c0.74,1.228-0.275,1.304-1.074,1.472   c-0.791,0.194-2.551-1.248-3.264-1.749c-0.738-0.438-0.959-0.438-1.318-0.19c-0.305,0.331-0.057,0.969-0.168,1.695   c-0.105,0.829,1.129,1.106,2.004,1.13c0.939,0.058,0.879,0.949,0.58,1.612c-0.305,0.609-0.465,0.277-0.877,0.329   c-0.473,0.086-0.686-0.299-1.375-0.466c-0.658-0.226-1.074-1.199-1.18-1.199c-0.191,0-0.441,0.396-1.373-0.276   c-0.936-0.691-0.055-1.218-0.465-1.856c-0.414-0.638-0.824-0.969-0.631-1.576c0.217-0.609,0.16-1.165,0.023-1.75   c-0.055-0.638-0.328-0.869-1.373-1.111c-1.041-0.252-2.031-1.663-2.883-2.532c-0.797-0.793,0.111-0.604,0.441-0.604   c0.244,0,0.793,0.939,1.699,1.219c0.963,0.277,1.762,0.834,4.369,1.689c2.607,0.922,4.004,0.312,5.324-0.244   c1.289-0.466,2.031-3.243,1.783-4.603c-0.219-1.412-1.729-2.051-2.775-2.773c-1.014-0.835-4.527-2.365-6.037-3.387   c-1.514-1.16-1.564-0.669-2.77-0.921c-1.236-0.132-1.484-0.047-2.639,0.087c-1.182,0.165-0.438-0.39-0.023-1.003   c0.352-0.603-0.824-0.432-1.783-0.793c-0.939-0.366-0.939,0.746-1.785,0.687c-0.822-0.048-0.688-0.279-0.525-1.714   c0.166-1.471,0.328-0.508,0.525-1.423c0.189-0.856-0.637-0.361-1.432-0.744c-0.824-0.415-1.865-0.727-1.865-0.727   c-0.768-0.193-0.883-0.193-1.371-0.94c-0.547-0.798-0.938-0.047-1.213,0.441c-0.219,0.451-1.92,0.03-2.633-0.488   c-0.684-0.556-1.127,0.189-1.508,0.384c-0.332,0.218-2.279,2.196-3.158,2.627c-0.936,0.422-1.621,0.676-2.17,1.81   c-0.572,1.193-3.047,2.049-3.35,2.774c-0.328,0.688-1.701,1.083-2.439,2.605c-0.748,1.447-0.963,1.36-1.76,2.471   c-0.85,1.075-0.496,0.521-0.52,1.471c-0.055,1.076-0.393,2.654-1.154,2.714c-0.77,0.169-0.936,1.169-1.209,2.112   c-0.299,0.97-0.088,1.224-0.363,2.057c-0.297,0.886-0.848,1.27-0.572,2.712c0.221,1.388-0.875,1.307-1.18,1.778   c-0.305,0.556-1.066,0.802-1.066,0.802c-0.115-0.024-0.666,0.972-0.992,0.972c-0.359,0-1.428,2.272-1.615,2.773   c-0.141,0.53-1.16,0.776-1.486,1.193c-0.332,0.362-0.877-0.193-1.32,0.14c-0.492,0.306-0.492,0.329-0.627,0.748   c-0.139,0.498-1.043,0.526-1.318,0.946c-0.254,0.248-0.605,0.469-1.131,0.857c-0.432,0.412-0.686,1.441-0.707,1.914   c-0.137,0.471,0.135,0.39,0.275,1.303c0.076,0.888-0.141,0.804-0.199,1.33c-0.055,0.497,0.412,0.775,0.551,1.329   c0.197,0.615,0.41,0.278,0.523,0.668c0.158,0.39,0.158,0.916,0.631,1.306c0.332,0.36-0.219,0.723-0.744,0.723   c-0.488-0.086,0,1.134,0.441,1.385c0.443,0.355,0.551,0,0.551,0.911c0,0.754-0.633,0.199-1.07,0.113   c-0.387-0.031-0.684,0.473,0.164,1.304c0.906,0.748,0.461,0.917,1.646,1.001c1.125,0.023,0.111,0.194,0.66,0.441   c0.465,0.308,0.436,0.308,1.037,0.466c0.578,0.172,0.414-0.384,0.912-0.796c0.521-0.42,0.357,0.638,0.906-0.111   c0.578-0.693,0.713-0.752,1.426-2.056c0.82-1.166,0.273,0,0.852-0.082c0.635-0.167,0.162-0.167,0.711-0.528   c0.549-0.384-0.35-1.051-0.139-1.694c0.221-0.556,0.307-0.799,0.637,0.363c0.326,1.225,0.936,2.75,0.936,2.75   s0.764,0.803,0.9,1.411c0.135,0.668-0.137,1.471,0.473,2.412c0.625,0.891,0.352,1.748,1.668,2.44c1.35,0.693,0,1.003,0,1.003   s0.193,1.021,0.467,1.607c0.252,0.667,0.082,0.667,1.375,0.524c1.291-0.193,0.684-0.109,0.607-0.638   c-0.139-0.443,1.34-1.219,1.34-1.219l1.621-0.168c0,0,0.523-1.689,0.66-2.66c0.139-0.831,0.326-3.165,0.52-5.022   c0.191-1.855,0.389-0.359,1.9-2.024c1.561-1.609,0.572-1.336,0.9-2.082c0.332-0.802-1.725-2.242-2.686-2.467   c-0.91-0.192-0.473-1.33-0.309-3.408c0.193-2.138-0.164-1.42-0.051-2.138c0.051-0.669,0.52-0.553,0.74-1.277   c0.189-0.781,0.465-0.279,0.715-0.996c0.275-0.723,0.602-0.529,1.344-0.892c0.715-0.387,0.029-0.387,0.441-0.524   c0.465-0.105,0.549-0.501,0.963-1.081c0.432-0.666,0.738-0.555,1.064-1.245c0.414-0.757,0.109-0.693,0.742-1.226   c0.549-0.44-0.162-0.636-0.162-0.974c0-0.276-0.357-0.608-0.082-1.576c0.275-1.058-0.225-0.665,0.518-1.335   c0.855-0.58,0.113-0.438,0.961-1.131c0.822-0.584,0.992,0,1.871-0.031c0.93-0.084,1.012,0.275,2.006,0.523   c0.93,0.309,0.297,0.893,0.492,1.727c0.137,0.855,0,0.802-0.492,0.802c-0.469-0.083-0.666,0.61-0.855,1.418   c-0.244,0.803-1.15,1.269-1.236,1.964c-0.107,0.747-0.633,0.775-0.604,1.053c0,0.31-0.381-0.306-0.604,0.174   c-0.328,0.631-0.219,1.105-0.713,1.383c-0.551,0.279-0.572-0.114-0.908-0.251c-0.326-0.056,0.082,0.64-0.273,1.75   c-0.387,1.077-0.023,0.608,0.219,1.277c0.219,0.692,0.137,0.938,0.578,2.132c0.414,1.194-0.053,2.884,0.057,3.829   c0.107,0.974,0.328,0.054,1.18,0.303c0.879,0.222,0.93,0.193,1.701,0.641c0.793,0.497,0.383,0.775,0.383,1.413   c0.059,0.637,1.1-0.526,1.1-0.526c0.41-0.058,0.795-0.225,1.51-0.779c0.684-0.555,0.496-0.219,1.209-0.278   c0.709-0.106,0.223,0.06,0.656-0.106c0.414-0.225-0.023-0.419,0.25-0.666c0.275-0.166,0.164,0.162,0.766,0.303   c0.527,0.193,0.527-0.056,1.129-0.141c0.602-0.108,0.656,0.279,1.014-0.108c0.326-0.331,0.74,0,1.098-0.47   c0.389-0.417,0.58,0.162,0.498,0.356c-0.055,0.278-0.109,0.171,0.082,0.584c0.221,0.449,0.771,0.587,1.121,0.449   c0.357-0.03,0.551,0.077,0.633,0.799c0.053,0.748-0.633,0.334-1.258,0.417c-0.688,0.055-0.719,0.192-0.939,1.11   c-0.271,0.828-0.686,0.446-1.15,0.47c-0.467,0.053-0.549-0.16-0.549-0.16l-0.578-0.343c-0.604-0.49-1.018-0.077-1.812-0.16   c-0.797-0.054-0.875,0.438-2.059,0.556c-1.15,0.246-1.836,1.471-1.619,2.185c0.273,0.78,0.549,0.117,0.492,0.367   c-0.023,0.189-0.299,0.466-0.023,1.052c0.217,0.608,0.572,0.64,0.848,0.473c0.252-0.227,0.303-0.249,0.326,0.36   c0.064,0.501-0.133,3.136-0.684,3.492c-0.549,0.306-0.354-0.056-0.766-0.443c-0.355-0.329-0.631-0.667-0.936-1.192   c-0.223-0.664-0.137-0.556-1.18-0.307c-1.039,0.307-0.932,0.583-1.039,1.387c-0.062,0.778-0.25,0.778-0.496,1.664   c-0.303,0.916,0.246,2.719,0.41,3.829c0.164,1.111-0.41,0.888-0.824,0.888c-0.408,0-0.305,0.614-0.877,1.027   c-0.549,0.555-1.484,0.857-1.484,0.857c-0.604,0-0.301-0.056-1.043-0.221c-0.713-0.162,0-0.557-0.604-1.193   c-0.637-0.581-0.637-0.029-1.84,0.168c-1.182,0.276-1.014,0.749-1.592,0.832c-0.551,0.111-1.457,1.054-2.223,1.223   c-0.684,0.19-0.408,0.632-0.684,0.994c-0.361,0.501-0.525,0.254-1.127,0c-0.551-0.191-0.088-0.191-0.141-0.693   c-0.105-0.47-0.189-0.023-0.52-0.578c-0.334-0.531,0.057-0.28,0.191-0.587c0.082-0.276-0.387-0.221-0.738-0.136   c-0.359,0.055-0.443,0.278-0.883,0.442c-0.49,0.145-0.49,0.08-0.904,0.145c-0.355,0-0.521,0.33-0.521,0.33   c-0.414,0.224-0.414,0.273-0.637,0.468c-0.188,0.277-0.352,0.17-0.844,0c-0.391-0.107-0.191-0.107-0.057-0.309   c0.057-0.213,0.162-0.354,0.057-0.554c-0.115-0.191-0.252,0.064-0.467,0c-0.252-0.055-0.549-0.244-0.66-0.244   c-0.141,0-0.416,0-0.713-0.224c-0.334-0.166,0-0.641-0.334-0.998c-0.35-0.391-0.193-0.585-0.217-1.384   c0-0.642,0.141-0.558,0.416-0.861c0.326-0.277,0.623-0.421,0.623-0.833c0-0.45,0.254-0.639,0.633-1.056   c0.467-0.417-0.053-0.332-0.518-0.579c-0.412-0.197-0.254-0.393-0.412-0.971c-0.191-0.615,0.191-0.809,0.434-1.11   c0.275-0.415-0.137-0.276-0.275-0.554c-0.158-0.223-0.484,0.139-1.15,0.109c-0.631-0.109-0.328,0.107-0.877,0.607   c-0.549,0.61-1.066,0.5-1.402,1.111c-0.297,0.609,0,0.553-0.137,0.915c-0.076,0.361-0.137,0.587,0.137,1.196   c0.195,0.552,0,0.66-0.023,1.107c-0.113,0.469-0.219,0.359,0.16,0.641c0.334,0.276,0.334,0.97,0.475,1.381   c0.188,0.475,0.572,1.97,0.625,2.607c0.059,0.585-0.162,0.554-0.492,0.749c-0.408,0.226-0.494,0.53-1.018,0.53   c-0.49,0.078-0.438-0.116-0.963,0.078c-0.549,0.171-0.486,0.639-0.656,0.639c-0.166,0-0.93-0.161-1.455,0   c-0.549,0.224-1.924,0.915-2.385,1.056c-0.498,0.138-0.605,0.888-0.719,0.919c-0.078,0.105,0.086,0.661-0.078,1.107   c-0.084,0.384-0.473,0.888-0.473,1.355c0.062,0.419,0,0.419-0.135,0.81c-0.217,0.3-0.9,0.247-1.041,0.247   c-0.135,0-1.346,1.11-1.346,1.11c-0.521,0.278-1.123,2.108-2.082,2.858c-0.965,0.776-1.1,1.216-2.199,1.607   c-0.988,0.442-1.566-1.224-2.256-0.891c-0.654,0.335,0.334,2.556,0.17,2.556c-0.17,0-1.895,0.249-1.977,0.137   c-0.193-0.137-0.467-0.637-0.988-0.637c-0.469,0-1.514,0.385-2.475,0.833c-0.982,0.471-0.107,1.27,0.328,1.996   c0.199,0.277,0.17-0.171,0.992-0.171c0.578,0.028,0.494,0.225,1.066,0.613c0.609,0.303,0.748,0.166,1.023,0.219   c0.297,0.084,0.273,0.502,0.625,0.834c0.439,0.198,0.135,1.109,0.439,1.447c0.246,0.33,1.484,0.714,1.678,1.351   c0.164,0.606,0.139,1.247,0.023,1.523c-0.105,0.314-0.492-0.833-0.105,2.389c0.381,3.302-1.625,3.349-1.9,3.159   c-0.273-0.134-0.486-0.326-0.82-0.389c-0.273-0.13-0.711,0.279-1.15-0.06c-0.498-0.347-0.574-0.07-1.373,0.06   c-0.85,0.111-3.076-0.555-3.266-0.684c-0.252-0.148-0.252,0.07-0.688,0.129c-0.463,0.148-1.072,0.148-1.539,0.172   c-0.467,0.082-0.193-0.172-0.297-0.278c-0.084-0.059-0.773-0.146-1.352,0.048c-0.52,0.207-0.381,0.398-0.246,0.676   c0.164,0.276-0.463,0.276-1.041,0.276c-0.58,0-0.58,0.192-0.795,0.496c-0.199,0.383,0.053,0.529,0.439,1.134   c0.385,0.674,0.355,0.951,0.355,0.951s-0.246,0.578-0.031,1.304c0.223,0.664,0.197,2.54,0.113,2.93   c-0.113,0.315-1.51,3.964-1.561,4.52C414.35,107.337,414.922,107.337,415.174,107.42z M611.057,130.489   c-0.105,3.834-0.141,9.842-0.158,17.885c0.338,0.135,0.643,0.35,0.84,0.82c0.465,1.168,1.123,2.386,1.586,3.916   c0.475,1.521,0.334,0.028,0.117,1.938c-0.193,2.028-0.057,2.22,0.959,2.333c1.045,0.08,1.48-0.53,2.195-0.834   c0.77-0.248,1.617-0.944,1.617-1.553c0-0.585,0.824,0.14,1.352,1.247c0.381,0.943,1.078,2.966,1.682,4.892   c1.545-0.815,4.16-2.66,4.16-12.159C625.406,144.709,624.354,130.961,611.057,130.489z M511.842,195.544   c0.607-0.811,1.137-1.539,1.477-1.995c1.176-1.638,7.414-6.657,8.617-8.131c0.055-0.047,0.158-0.178,0.223-0.247   c-3.41-0.089-7.15-0.161-10.35-0.201C511.809,188.704,511.818,192.159,511.842,195.544z M459.016,109.534   c-0.055-0.496-0.055-1.086-0.604-0.69c-0.494,0.277-1.182,0.137-2.006,0.194c-0.824,0.083-1.678-0.17-1.73,0.242   c-0.135,0.915,0.443,1.747,1.566,1.913c0.871,0.221,1.07,0.391,1.473,0.593c0.34-0.554,0.738-1.046,1.199-1.473   C458.955,110.025,459.025,109.759,459.016,109.534z M537.662,146.528c-0.639-3.291-1.23-6.15-1.873-8.513   c-0.064,0.133-0.145,0.206-0.209,0.361c-0.412,0.979-0.52,1.327-1.648,1.557c-1.043,0.167-0.465-0.229-2.027,0   c-1.623,0.167-2.471,0.107-2.449-0.616c0.061-0.687-0.244-2.461-0.244-2.461s0.385-0.95-0.053-1.251   c-0.467-0.279-1.1,1.601-1.1,1.877c0,0.316-0.715,0.316-1.098-1.18c-0.352-1.388-1.277-3.559-1.785-4.017c-0.164,0-0.332,0-0.504,0   c-0.188,0.182-0.371,0.326-0.623-0.012c-1.592-0.023-3.266-0.034-5.025-0.034c-2.912,0-5.262,0.022-7.053,0.073   c-0.109,6.051-0.145,13.578-0.156,21.486c0.391,0.467,0.742,0.877,0.787,1.088c0.055,0.521,0.771,0.579,0.961,1.354   c0.244,0.778,1.045,1.581,0.443,2.137c-0.543,0.521-0.041,1.331,0.166,2.014c5.465-0.019,11.645-0.066,15.189-0.188   c0.328-0.189,0.656-0.347,0.979-0.602c0.326-0.274,0.525-0.521,0.742-0.769c0.607-1.767,1.303-4.244,1.688-6.25   c0.41-2.181,1.803-4.029,3.76-5.027c0.395-0.198,0.803-0.367,1.254-0.509C537.734,146.877,537.693,146.712,537.662,146.528z    M534.402,134.145c-0.1-0.192-0.184-0.473-0.285-0.638l-0.428-0.763c-0.104,0.036-1.205-0.145-1.67-0.205   c-0.09-0.012-0.27-0.012-0.365-0.022c0.906,0.938,1.68,1.412,2.277,1.53C534.135,134.086,534.256,134.11,534.402,134.145z    M447.02,99.38c0.078,0.785-0.168,0.997,0.41,0.892c0.574-0.106,0.627-0.106,0.689-1.109c0.023-0.941,0.434-0.557,0.244-1.338   c-0.191-0.832-0.383-1.27-0.578-1.182c-0.438,0.238-0.438,0-0.824,0.434c-0.355,0.471-0.766,0.229-0.355,1.062   C447.02,99.019,446.938,98.547,447.02,99.38z M558.332,137.098c0.516,0.086,0.814,0.208,1.047,0.869   c0.359,0.965-0.299,2.521,0.854,2.571c1.129,0,1.047-0.051,2.09,0.892c1.039,0.976,3.02,1.171,3.623,0.938   c0.551-0.278,0.848-0.639,0.357,0.037c-0.578,0.625-0.988,1.11-1.646,1.302c-0.635,0.216-1.371,0.519-0.58,0.941   c0.717,0.494,0.307,0.494,1.482,1.519c1.156,1.11,1.703,1.471,2.881,0.868c1.215-0.64,1.158-1.7,1.488-2.579   c0.355-1.064,0.93,0.519,1.258,3.376c0.129,1.07,0.275,2.365,0.428,3.612c-0.027-8.426-0.094-14.61-0.283-19.591   c-0.033-0.81-0.109-1.364-0.188-1.714c-2.076-0.52-4.977-1.072-7.746-1.375c-1.545-0.155-2.988-0.831-4.105-1.903   C558.928,129.923,558.605,133.395,558.332,137.098z M341.887,232.979c-5.771,0.132-11.559,0.255-16.484,0.255   c-3.127,0-5.873-2.088-6.752-5.115c-0.625-2.17-0.982-7.992,0.312-10.984c0.98-2.28,3.061-3.86,5.49-4.197   c5.84-0.795,9.906-1.473,12.115-2.008c0.064-0.381,0.146-1.005,0.146-1.988c0.238-4.71,0.375-9.864,0.451-15.919   c-0.938-0.939-1.732-2.002-1.445-2.358c0.438-0.476,1.328-1.271,1.484-1.91c0-0.067,0-0.139,0-0.205   c-0.006-0.172-0.035-0.345-0.217-0.466c-0.963-0.468-2.42-5.383-2.969-5.66c-0.494-0.164-2.088-2.104-2.58-2.191   c0,0-3.404-1.246-4.312-1.523c-0.846-0.385-4.033,0.886-4.119,0.385c-0.105-0.44-3.293-3.242-3.867-4.041   c-0.232-0.25-0.732-0.452-1.264-0.664c0.025,2.973,0.076,5.865,0.148,8.549c0.076,2.99,0.156,5.838,0.156,8.561   c0,1.839-0.713,3.617-1.988,4.945c-1.945,2.025-4.764,2.935-9.133,2.935c-0.918,0-2.701-0.054-4.229-0.391   c-2.859-0.642-5.033-2.998-5.443-5.928c-0.393-2.741-1.152-5.178-1.82-7.326c-0.023-0.077-0.047-0.143-0.072-0.211   c-2.576-0.173-7.502-0.309-12.438-0.394c-0.572,0.456-1.193,0.967-1.504,1.399c-0.604,0.833-2.938,3.22-3.234,5.246   c-0.154,1.254-0.967,2.755-1.451,3.841c0,0.459,0,0.97,0.006,1.419c0.807,0.283,2.234-0.037,2.156,0.566   c0,0-0.906,1.73-2.121,2.519c0.025,1.821,0.057,3.558,0.086,5.271c0.797,0.417,2.469,1.278,2.721,2.942   c0.275,2.025,0.99,0.221,1.152,0.801c0.094,0.449,0.643,1.841,1.098,2.983c0.988,0.137,1.977,0.277,3.059,0.424l3.023,0.398   c3.211,0.446,5.703,3.042,6.045,6.31c0.023,0.229,0.43,4.398-0.627,8.039c2.459,1.631,4.953,3.391,4.973,4.066   c0.029,1.213,0.275,12.527,0.492,13.952c0.252,1.302-0.631,8.754-0.875,9.671c-0.246,0.892,0.77,6.886,0.717,8.235   c-0.029,1.304-0.221,5.5-0.824,7.721c-0.66,2.181-1.783,5.04-1.32,5.847c0.439,0.7,1.811,3.666,1.1,5.245   c-0.74,1.557,0.244,4.607,0.74,4.74c0.463,0.218,1.838,0.857,1.676,3.268c-0.113,2.282,0,4.218,0,5.716   c-0.061,1.532-0.41,5.499-0.635,6.332c-0.248,0.938-0.436,5.654-0.461,6.319c-0.031,0.385,0.186,7.461,3.094,8.654   c3.219,1.39,8.299-0.867,9.258-3.133c0.244-0.59-0.166-1.085-0.387-2.449c0,0,0.74-3.351,1.426-4.354   c0.686-1.07,2.637-2.628,2.744-3.567c0.115-0.869,0.475-2.773-0.107-2.941c-0.631-0.231-2.109-1.614-2.086-3.137   c0.082-1.556,0.715-2.135,1.158-2.277c0.432-0.111,0.35-1.108,0.35-2.88c0-1.729,0.412-2.525,0.578-3.861   c0.107-1.413,0.5-3.933,1.406-3.909c0.848,0.06,2.547-3.267,2.332-4.461c-0.223-1.217,5.24-2.411,6.146-2.604   c0.959-0.28,3.402-2.896,3.537-5.417c0.252-2.521,4.012-4.377,4.668-5.569c0.664-1.254,1.982-4.544,2.395-5.222   c0,0,4.254-7.851,5.43-8.878c1.156-1.021-0.328-4.714,0.359-5.7c0.664-1.002,5.078-4.245,6.178-4.365   c1.15-0.075,5.766-1.991,6.314-2.161c0.521-0.059,2.66-4.184,3.514-7.102c0.031-0.085,0.055-0.23,0.082-0.325   C352.795,232.752,347.363,232.86,341.887,232.979z M308.984,26.048c0.656-0.22,0.879-1.135,1.672-0.613   c0.744,0.554,2.584-0.278,2.941,0.204c0.352,0.627,1.039,0.556,1.615,2.051c0.52,1.554-0.768,1.246-0.137,2.465   c0.633,1.222,1.596,2.107,3.348,3.526c1.764,1.465,2.227,3.023,3.848,2.634c1.59-0.309,1.209-1.693,0-3.581   c-1.154-1.824-2.832-2.273-1.375-2.273c1.486,0,2.361,1.142,3.461,2.41c1.1,1.336,1.398,0.974,2.281-0.137   c0.824-1.025,1.562-0.44,0.848-2.355c-0.656-1.996,1.098-2.329-0.824-4.462c-1.924-2.148-3.379-1.979-2.746-3.474   c0.688-1.494,1.646-2.557,2.641-1.723c0.982,0.867,1.369,0.867,1.941,2.769c0.609,1.874,0.633,2.281,1.35,2.56   c0.633,0.252-0.191-0.686,1.014-1.388c1.268-0.663,1.871-0.663,2.912-2.075c1.016-1.422,3.572,0.438,1.947-2.084   c-1.615-2.521-1.234-0.998-2.828-3.74c-0.932-1.749-1.312-2.529-1.785-3.024c-5.68,1.919-11.311,3.881-16.803,6.149   c0,0.722,0.965,0.999,0.469,1.665c-0.572,0.723,0.473,0.118-1.807,0.616c-2.199,0.418-2.859,0.418-3.627-0.279   c-0.824,0.386-1.619,0.697-2.443,1.087c-0.359,0.793-0.848,1.963-0.223,2.353C307.359,25.77,308.322,26.194,308.984,26.048z    M334.049,74.614c0.824-1.271,0.572-2.688,0.572-2.688s0.117-0.692-0.848-0.692c-0.469,0-1.619,1.299-3.076,3.08   c-1.451,1.719-2.443,4.216-2.938,4.715c-0.904,0.831-2.281,2.241-1.262,2.827c0.988,0.609,2.824,0.248,4.586,0.804   c1.752,0.531,2.441,2.133,3.951,2.469c1.486,0.42,3.104,0.142,2.662-1.8c-0.492-2.026-0.023-3.498-0.352-4.886   c-0.252-1.419-1.1-0.939-2.311-1.855C333.854,75.672,333.193,75.723,334.049,74.614z M206.584,110.704   c-0.139-0.277-0.441-0.727-0.801-1.307c2.395-4.69,5.057-9.232,7.965-13.675c14.883-21.026,34.893-39.552,58.777-54.638   c-0.221,0.916-0.357,1.751-0.275,2.138c0.221,1.074,2.443-0.308,2.361,1.19c-0.082,1.667-2.223,4.077-1.484,4.63   c0.717,0.527,4.834-1.634,7.689,2.028c2.883,3.688,3.734,4.545,4.445,4.797c0.77,0.357,4.117,0.94,4.422,0.834l0.305-0.083   c0,0,0.16,1.771-0.939,2.578c-1.041,0.833-1.182,3.352-0.877,4.41c0.246,1,1.566,1.968,1.955,3.27   c0.324,1.275,1.752,2.275,2.684,1.474c0.883-0.861,1.266-2.023,1.297-3.887c0.076-1.915-0.414-5.38-0.061-5.99   c0.336-0.524,5.711-1.078,6.205-3.714c0.521-2.582,1.924-4.189-0.326-7.904c-2.311-3.775,0.824-2.28,1.531-3.166   c0,0,1.732-1.054,1.234-3.629c-0.486-2.61-0.076-4.055,0.689-6.133c0.768-1.943,3.516-0.969,4.613-0.661   c1.072,0.276,2.938-0.533,3.734,0.803c0.77,1.276,0.025,2.548,1.396,3.52c1.32,0.917,2.693,0.137,2.807,1.778   c0.105,1.632-0.141,2.188-0.355,3.469c-0.254,1.219-0.363,3.02,0,3.464c0.355,0.439,0.355,2.634,1.836,2.467   c1.479-0.191,2.605-1.139,3.156-1.388c0.578-0.277,1.07-2.187,2.09-3.273c0.957-1.025,0.822-1.942,1.588-2.274   c0.82-0.413,1.096,4.8,1.865,7.683c0.824,2.828,1.924,3.999,1.291,4.969c-0.572,1.026-1.756,0.472-0.467,2.326   c1.266,1.804,0.855,2.138,2.469,2.829c1.543,0.67,2.75,1.577,2.969,2.249c0.244,0.662-1.676,1.167-2.969,1.721   c-1.232,0.498-3.018,1.689-2.002,1.938c1.021,0.195,3.02-0.361,3.459-1.111c0.467-0.72,1.619-1.523,1.893-0.938   c0.275,0.557-0.846,1.801,0.139,1.688c1.021-0.054,1.676-1.132,1.646,0.693c-0.023,1.778-0.41,1.193-0.16,2.473   c0.242,1.219,0.242,1.632-0.525,2.051c-0.764,0.443-2.822,0.969-3.402,0.969c-0.496,0-0.988,0.416-2.088,1.611   c-1.176,1.272-1.176,1.333-3.869,1.333c-2.773,0-5.08-0.862-7.113-0.67c-1.998,0.166-0.572-1.495-2.525,0.166   c-1.92,1.719-1.73,1.774-3.314,2.724c-1.627,0.97-1.926,1.547-2.967,2.326c-1.076,0.832-1.703,1.833-2.336,2.442   c-0.604,0.637,2.359-1.856,3.377-2.389c1.041-0.554,5.961-2.218,6.783-1.719c0.846,0.474,1.455,1.248,1.043,2.111   c-0.471,0.938-1.404,0.3-1.865,1.133c-0.551,0.779,0,0.555,0.215,1.225c0.215,0.666,0.246,0.666,0.273,1.58   c0.027,0.888-0.027,2.026,0.766,2.162c0.773,0.109,0.635,0.419,1.709,0.973c1.1,0.438,1.375,0.246,2.164,0.438   c0.771,0.226,1.238,0.226,0.826,0.782c-0.357,0.605-1.457,1.105-2.363,1.349c-0.85,0.228-2.061-0.155-2.824,0.724   c-0.766,0.893-1.266,1.772-2.334,2.049c-0.959,0.363-1.676,0.594-1.676-0.386c0-1.048,0.359-2.112,1.125-2.354   c0.744-0.252,1.926-1.33,0.768-1.33c-1.1,0-1.533-0.086-2.471,0.585c-0.879,0.745-1.891,1.387-2.939,1.436   c-0.959,0.061-1.479,0.19-2.385,1.06c-0.824,0.713-0.988-0.121-1.648,0.989c-0.656,1.062-2.09,2.253-1.73,3.498   c0.33,1.253,1.236,0.592,0.168,1.336c-1.1,0.834-0.168,0.521-2.252,0.94c-2.086,0.413-4.695,0.329-4.613,1.667   c0.057,1.469,0.496,2.386-1.07,3.69c-1.512,1.385-3.32,1.553-3.65,3.928c-0.221,1.644-0.309,1.81-0.285,2.258h-35.186   c-6.465,0-12.516-0.194-17.633-0.337c-6.623-0.207-11.654-1.351-14.84,1.854c-3.152,3.186-3.58,11.698-0.777,15.438   c1.092,1.459,2.699,2.436,4.484,2.724l1.973,0.314c2.549,0.412,5.039,0.785,7.271,1.376c0.043,0.406,0.076,0.963,0.096,1.699   c0.256,4.773,0.34,11.285,0.361,21.617c-0.561-0.29-1.074-0.454-1.604-0.585c-0.885-0.277-0.746-1.194-1.816-1.611   c0,0-1.73,0.417-2.469-1.756c-0.795-2.134,0.082-2.652,0.357-3.52c0.244-0.797-0.029-2.026-1.014-3.741   c-0.992-1.66-1.764-3.279-2.693-4.111c-0.877-0.687,0.141-1.24-1.486-2.18c-1.561-0.834-0.738-2.775-1.561-3.393   c-0.91-0.66-2.555-2.77-3.268-4.013c-0.715-1.256-2.035-2.667-2.111-4.085c-0.113-1.437,0.244-2.972-0.221-3.275   c-0.551-0.298-2.721-1.769-2.721-1.769s-0.629,3.33-0.354,4.099c0.246,0.751,1.428,2.136,1.451,3.113   c0.059,1,1.92,2.885,2.17,3.882c0.297,0.939,2.223,5.354,2.145,5.91c-0.027,0.553,0.354,1.277,0.961,1.965   c0.549,0.701,1.289,1.833,1.152,2.196c-0.115,0.302-1.129,1.158-1.129,1c-0.105-0.205-0.162-1.276-0.77-1.785   c-0.605-0.519-2.961-2.583-3.158-3.075c-0.244-0.493,0.748-3.026,0.115-3.269c-0.633-0.277-0.936-1.338-1.352-1.749   c-0.381-0.254-1.508,0.302-2.109-0.64c-0.635-0.939-2.061-1.688-1.072-1.688c0.988,0.026,2.305-0.479,1.596-2.022   c-0.771-1.449-1.596-1.581-1.922-2.531c-0.41-0.917-0.938-3.333-1.264-4.405c-0.328-1.024-1.268-4.245-0.877-4.604   c0.434-0.339-0.305-1.494-1.291-1.968c-0.99-0.532-1.594-1.229-2.471-1.507c-0.936-0.193-2.143,0.592-2.004-0.43   C206.531,111.135,206.91,111.472,206.584,110.704z M288.172,93.615c0.246-0.423-0.854-0.509-0.854-0.509   c-2.111,0.448-4.584,1.664-5.459,1.664c-0.934,0-2.248,0.952-1.424,1.39c0.766,0.395,1.205,0.832,2.551,0.312   c1.238-0.529,1.672-1.364,2.965-1.579C287.184,94.701,287.928,94.062,288.172,93.615z M288.172,91.008   c-0.381,0.942-0.854,1.389,0.689,1.076c1.479-0.303,1.92-0.134,2.85,0.119c0.885,0.193,0.941,0.388,1.455-0.398   c0.469-0.684,0.824-0.601,0.91-0.986c0.107-0.254,0.107-1.473,0.107-1.473h-0.275c-1.014,0.216-0.742,0.517-1.396,0.829   c-0.684,0.328,0-0.442-1.375-0.06C289.791,90.564,288.557,89.948,288.172,91.008z M267.338,80.138   c0.742,0.856,1.018,1.967,2.473,1.388c1.449-0.614,2.883-1.833,3.895-1.919c1.07,0,0.191,0.086,0.139,0.639   c-0.053,0.586,0.686,0.697,1.152,1.058c0.441,0.472,0.441,0.833,1.701,0.749c1.264-0.224,1.92-0.526,2.447,0   c0.549,0.467,1.174,0.637,1.373,1c0.133,0.415,0,1.026-1.486,0.691c-1.455-0.391-1.646-0.691-2.695-0.113   c-1.035,0.556-2.332,0.637-2.848,2.162c-0.521,1.559,0.516,0.472,0.355,1.282c-0.168,0.714-0.549,1.799-1.074,2.981   c-0.52,1.232-0.877,3.363-0.551,4.22c0.359,0.895,0.748,1.171,1.625,0.556c0.877-0.581,1.457-2.049,1.373-3.05   c-0.031-0.963,0-2.75,0.658-3.906c0.662-1.22,0.904-1.417,1.645-1.775c0.77-0.308,1.016-0.752,1.512-0.916   c0.492-0.167,1.234-0.497,1.51,0.278c0.252,0.749,0.934,0.996,0.66,2.189c-0.275,1.142-1.707,1.38-1.041,2.081   c0.633,0.661,1.615-0.751,1.891-0.279c0.252,0.409-0.521,1.991,0.41,2.268c0.992,0.229,1.426-0.276,1.488-1.327   c0.053-0.999,0.822-1.362,0.877-2.464c0.107-1.112,0.107-2.222,0.436-1.472c0.473,0.753,0.387,1.307,1.453,1.586   c1.018,0.3,1.842,0.439,1.293-0.479c-0.551-1.025-0.551-2.967-1.619-3.267c-1.07-0.221-1.812-0.669-3.379-1.247   c-1.51-0.64-2.469-0.586-2.908-1.975c-0.467-1.471,0-2.326,0-2.634c0-0.362-1.455,0.609-1.703-1.024   c-0.273-1.581-0.438-1.438-1.262-1.747c-0.959-0.278-1.619-0.556-1.619-0.556c-0.572,0,0.248,0.306-1.514,1.141   c-1.668,0.768-0.547,0.768-3.125,1.601C268.355,78.689,266.57,79.247,267.338,80.138z M298.277,149.364   c-0.824,0.107-2.334-0.17-2.691,0.107c-0.328,0.146-2.25-0.301-2.691-0.301c-0.361-0.085,0.271,0.688,0.877,1.026   c0.611,0.33,0,0.36-0.025,0.944c-0.082,0.496,0.637,0.246,0.574,0.693c-0.078,0.443-2.797,0.164-3.568,0   c-0.764-0.138,0.412,1.214,0.881,1.275c0.469,0,0.414-0.336,1.428-0.167c1.016,0.248,1.375,0.105,1.947,0.279   c0.578,0.247,0.469,0.938,1.018,0.938c0.52,0.144,0.328-0.69,0.66-1.217c0.303-0.413,0.164-0.111,0.736-0.359   c0.604-0.306,0.193-0.054,0.307,0.277c0,0.022,0.023,0.011,0.023,0.036c0.021-0.129,0.059-0.26,0.084-0.379   c0.225-1.123,0.74-2.133,1.432-3.012C299.084,149.327,298.922,149.316,298.277,149.364z M350.387,36.457   c0.486,1.383-0.609,2.634,0.959,4.159c1.586,1.578-0.113,2.299,2.166,2.329c2.225,0.135,2.799-1.114,3.102,0   c0.299,1.16-0.602,0.913,0.275,1.971c0.879,1.047,1.26,2.604,2.662,1.104c1.344-1.521,2.719-3.881,3.432-7.432   c0.771-3.52,1.619-4.52,2.637-5.855c1.041-1.27,0.217-3.629,1.568-3.905c1.316-0.276,1.73-1.527,3.945-1.417   c2.229,0.138,4.891-1.363,6.398-3.028c1.514-1.601,4.26-5.052,6.484-5.208c2.217-0.087,8.176-1.7,9.334-3.007   c1.07-1.238,1.176-2.432,3.041-3.289c1.816-0.867,3.432,0,2.971-3.532c-0.443-3.605-1.018-5.62,0.082-7.958   c0.273-0.604,0.408-0.992,0.496-1.389c-17.709,1.472-34.869,4.39-51.203,8.573c0.574,1.811,3.074,3.947,3.625,3.077   c0.738-1.194,3.102-3.014,3.293-2.22c0.223,0.784-0.25,4.076-1.508,4.411c-1.293,0.426-2.883-1.879-3.898,1.052   c-0.938,2.834-2.281,4.281-2.418,7.438c-0.137,3.103-0.412,6.104,0.604,8.297C349.48,32.847,349.889,35.069,350.387,36.457z    M521.332,233.234c-1.799,0-3.508-0.025-5.221-0.063c-0.1,0.353-0.221,0.689-0.381,0.956c-0.352,0.556-1.123,1.659-1.396,2.182   c-0.275,0.507-0.879,2.411-0.604,3.278c0.275,0.919,0.275,2.521,0.275,3.521c0.053,0.967,1.891,2.858,2.607,2.667   c0.627-0.085,1.154-0.554,1.586-0.676c0.416-0.192,2.309,0.205,3.105-1.991c0.801-2.275,1.264-2.832,1.287-3.001   c0.062-0.219,1.572-3.993,1.922-5.764c0.164-0.725,0.545-1.702,0.92-2.656C524.234,232.594,522.863,233.234,521.332,233.234z    M498.393,232.86c-6.211-0.062-12.52-0.062-18.648,0.109c-4.711,0.131-9.52,0.265-15.016,0.265c-2.217,0-4.297-1.05-5.621-2.834   c-2.229-3.003-3.475-11.566,0.66-15.427c0.92-0.854,2.059-1.456,3.293-1.725c1.469-0.312,3.08-0.526,4.674-0.722   c1.262-0.157,2.502-0.302,3.576-0.561c0,0,0.029-0.005,0.072-0.018c0.045-0.41,0.094-1.034,0.123-1.943   c0.346-3.895,0.549-26.124,0.549-39.895c0-20.712,0-31.108-0.346-38.028c-0.023-0.726-0.064-1.278-0.105-1.676   c-2.373-0.625-5.314-1.063-8.422-1.508l-0.729-0.11c-1.936-0.277-3.658-1.36-4.768-2.978c-0.795-1.159-1.314-2.967-1.535-4.971   c-0.084,0-0.119,0-0.207,0c-2.006,0.037-4.59-0.741-4.59-0.741s-1.316-0.557-1.176-1.473c0.135-1.053,0.215-0.521,0.932-1.714   c0.713-1.171,1.561-1.34,0.518-2.411c-0.963-1.062,0.223-0.979-1.234-2.325c-1.396-1.426-1.648-1.704-2.412-1.114   c-0.768,0.581-1.646,0.905-2.584,0.747c-0.961-0.226-1.045-1.383-2.58-0.553c-1.484,0.797-2.605,0.085-3.979,0.492   c-1.373,0.305-2.746,0.94-3.982,0.581c-1.209-0.327-2.309,1.146-3.682,1.666c-1.312,0.506-0.352,1.746-2.41,1.746   c-2.117,0-1.35-0.219-3.789-0.324c-0.461-0.025-0.783-0.11-1.107-0.196c0.014,0.171,0.061,0.339,0.061,0.521   c0,0.532-0.061,1.046-0.172,1.567c-1.254,5.605-2.004,19.536-2.361,26.229c-0.121,2.145-1.191,4.125-2.92,5.376   c-0.781,0.568-1.699,0.992-2.682,1.305c0.311,0.868,0.455,1.79,0.414,2.729c-0.068,1.574-0.205,3.524-0.354,5.645   c-0.26,3.721-0.576,8.026-0.576,11.708c0,2.993,0.082,7.303,0.176,11.354c0.885,0.628,1.678,0.992,2.131,0.768   c1.49-0.664,5.879-1.943,8.1-1.495c2.256,0.469,4.477,0,7.611-1.665c3.152-1.607,4.363-2.327,5.762-1.334   c1.373,0.92,0.824,1.751,2.607,3.221c1.648,1.551,3.848,1.551,4.885,1.273c1.072-0.217,4.863-0.606,3.736,4.884   c-1.1,5.491-2.281,5.41-1.816,6.242c0.498,0.832,1.184,3.355,2.832,4.796c1.674,1.336,4.338,6.329,5.158,9.347   c0.771,3.083,1.484,6.065,1.459,7.26c-0.031,1.229-0.273,1.616-1.127,2.751c-0.848,1.132-3.104,3.989-3.182,6.994   c-0.062,2.928-0.199,4.316,0.627,5.508c0.822,1.148,4.094,6.913,4.062,8.3c-0.023,1.324,1.35,10.286,1.814,11.156   c0.551,0.914,3.432,5.484,4.117,8.475c0.771,3.003,0.771,2.617-0.111,3.257c-0.848,0.662,0.744,0.709,0.744,1.688   c0,0.998,0.963,2.714,2.197,2.943c1.234,0.359,3.373,0.153,4.393-0.615c0.986-0.666,3.625-0.835,4.117-0.666   c0.49,0.277,3.73-0.303,4.805-0.783c1.07-0.47,5.627-3.33,6.865-5.485c1.234-2.051,5.018-7.43,6.062-10.483   c1.043-2.999,3.736-2.963,4.58-4.664c0.855-1.773,1.078-5.487,0-7.813C497.402,234.488,497.779,233.608,498.393,232.86z    M398.975,28.326c-0.549,0.941-0.684,1.997-0.988,0.917c-0.357-1.11,0.328-0.948-0.467-1.861c-0.738-0.887-0.877-1.466-1.621-1.228   c-0.742,0.194,0,1.033-1.1,1.395c-1.15,0.388-1.234,0.5-1.701,1.248c-0.438,0.748-0.162,1.25,0.824,0.972   c0.936-0.448,1.953-0.247,2.387,0.053c0.357,0.278,1.182,0.692,0.357,0.972c-0.824,0.306-1.18,0.583-2.141,0.532   c-0.877-0.062-1.562-0.339-1.236,0.276c0.275,0.66,0.936,0.442,1.732,0.66c0.768,0.059,1.369,0.031,1.287,1.005   c-0.076,1.046-0.326,0.888-0.822,0.97c-0.436,0.076-1.178-0.03-0.795,0.633c0.359,0.638,0.166,1.108,1.098,1.031   c0.854-0.141,0.793-0.67,1.922-0.141c1.07,0.494,1.207,0.697,2.088,1.052c0.902,0.389,1.893,0.751,2.938,0   c1.07-0.806,2.111-0.558,3.076-1.496c0.986-0.972,1.537-1.772,2.225-2.107c0.711-0.475,0.465-0.803,0.961-1.883   c0.41-1.089,0.41-1.449,0-2.164c-0.496-0.779-0.631-0.866-0.689-1.696c0-0.839,0.439-1.165-0.959-1.393   c-1.457-0.156-1.648-0.156-2.193,0.358c-0.549,0.563-0.824,1.034-0.824,1.034c-2.332-0.164-3-0.579-4.012-0.248   C399.303,27.549,399.578,27.382,398.975,28.326z M283.23,152.278c-0.578,0.496-1.152,0.771-0.52,0.771   c0.574,0.062,0.629,0.09,0.902,0.421c0.197,0.19-0.213,0.662,0.688,0.586c0.906-0.084,1.455-0.279,1.842-0.396   c0.385-0.137,0.604-0.36,0.572-0.611c0-0.243-0.52-0.243-0.52-0.243c-0.461-0.555-1.232-0.555-1.674-0.585   C284.086,152.188,283.811,151.835,283.23,152.278z M291.084,148.663c-0.469-1.025-0.523-1.025-0.852-1.242   c-3.4-2.241-3.598-0.977-6.482-2.942c-2.934-2.05-1.807-1.519-4.309-2.192c-1.408-0.363-1.889-0.773-2.555-0.868   c-0.006,0.779-0.006,1.542-0.012,2.337c0.145,0.025,0.244,0.037,0.426,0.062c1.98,0.216,0.469,0.278,2.965,1.22   c2.525,0.855,1.953-0.221,2.801,1.552c0.936,1.75,3.734,0.327,2.525,1.52c-1.232,1.147-1.566,1.147-0.934,1.257   c0.66,0,1.869-0.302,3.209,0.107C289.219,149.858,291.523,149.771,291.084,148.663z M400.67,145.216   c-0.023-0.121-0.047-0.255-0.07-0.389c-0.021-0.166-0.053-0.289-0.082-0.456c-0.197,0.421-0.344,0.758-0.484,1.122   C400.262,145.404,400.428,145.275,400.67,145.216z M276.973,133.206c0.035,0.036,0.076,0.095,0.113,0.119   c0.572,0.396-0.199,0.483,0.572,2.338c0.824,1.819,1.953,1.604,2.334,1.353c0.443-0.277,1.426-3.522,1.074-4.127   c-0.086-0.121-0.168-0.35-0.244-0.626c-1.463,0.023-2.789,0.051-3.838,0.073C276.979,132.612,276.979,132.928,276.973,133.206z"/>
	<path fill="#442F17" d="M82.688,124.786c-6.619-3.737-13.835-4.737-21.002-4.737c-19.049,0-32.205,14.942-32.205,47.842   c0,24.631,10.762,51.221,39.671,51.221c5.299,0,12.081-0.746,17.485-5.701c4.479-3.916,9.693-11.21,13.674-18.114   c1.426,0.44,4.506,2.187,5.383,3.828c-2.111,7.267-9.527,21.906-14.578,25.404c-5.875,1.796-13.835,4.293-26.929,4.293   C23.907,228.821,0,209.108,0,169.692c0-20.387,9.715-39.357,29.48-49.235c9.692-4.934,21.583-7.597,36.49-7.597   c14.026,0,28.438,2.496,36.512,2.882c-1.1,5.656-2.883,20.696-2.883,30.343c-0.746,1.104-6.314,1.444-6.648,0.554   C91.115,136.134,89.879,129.166,82.688,124.786 M318.891,116.334c-1.396,6.452-2.492,17.026-3.018,28.481   c-1.428,0.749-5.432,1.076-6.338,0.364c-1.213-6.692-2.312-11.819-4.287-15.34c-1.809-3.392-4.309-3.92-7.191-4.283   c-5.404-0.552-23.199-0.552-26.248,0c-0.877,0.172-1.781,1.979-1.781,3.053c-0.217,9.275-0.217,23.78-0.217,37.787   c0,0.578,0.572,1.109,1.121,1.109c5.055,0,18.668,0,24.273-0.224c4.469-0.308,5.926-1.578,7.189-5.021   c0.713-1.802,1.754-5.436,2.332-8.348c1.049-0.554,5.715-0.39,7.002,0.301c-0.328,4.58-0.908,10.793-0.908,18.562   c0,6.958,0.328,13.091,0.328,18.721c-0.877,0.909-5.184,0.909-6.809,0.555c-0.49-3.465-1.426-6.381-2.164-8.766   c-1.402-3.994-3.402-4.634-5.955-4.856c-4.289-0.36-20.645-0.526-25.48-0.526c-0.357,0-0.93,0.855-0.93,1.223   c0,11.509,0,21.493,0.217,29.982c0,5.843,1.619,8.182,5.189,9.123c3.242,0.639,7.223,1.109,11.887,1.748   c0.141,1.327,0,5.27-0.715,6.149c-9.912,0-18.174-0.492-28.223-0.492h-56.637c-15.127,0-20.727,0.492-27.506,0.492   c-0.33-1-0.549-5.4,0-6.149c3.568-0.639,7.166-1.385,8.814-2.493c1.945-1.112,1.945-2.942,1.807-3.452   c-1.449-6.012-5.789-18.516-8.312-24.895c-0.334-0.393-1.074-1.247-1.785-1.247c-2.857-0.199-8.98,0-13.648,0   c-7.215,0-11.883,0-14.412,0.138c-0.549,0-1.566,0.856-1.977,1.666c-3.043,8.897-6.811,19.412-6.811,22.48   c0.139,2.532,0.549,5.113,5.027,6.055c2.91,0.639,5.572,1.245,8.836,1.748c0.496,0.749,0,5.484-0.551,6.149   c-5.215,0-12.215-0.492-22.646-0.492c-6.666,0-14.025,0.492-20.338,0.492c-0.549-0.88-0.686-5.271,0-6.149   c12.6-1.977,15.1-3.605,19.576-14.503c9.936-23.66,24.455-63.988,28.986-77.026c1.426-3.664,3.211-9.623,3.6-12.708   c2.66,0.191,6.123,0.387,9.332,0.387c3.76,0,6.477-0.195,8.975-0.387l3.055,10.576c6.336,17.604,20.525,58.822,26.564,74.963   c5.492,13.948,6.865,16.251,17.633,18.254c2.883,0.444,8.205,0.276,12.291-0.665c4.643-1.062,5.355-3.604,5.553-8.626   c0.354-4.215,0.547-28.901,0.547-40.186c0-20.864,0-31.233-0.385-38.34c-0.162-6.162-1.594-7.267-5.217-8.146   c-2.854-0.786-6.451-1.283-10.021-1.86c-0.768-1.026-0.412-5.583,0.139-6.139c6.094,0,16.172,0.556,27.508,0.556h40.059   c13.143,0,19.102-0.772,21.822-1.266C318.371,115.018,319.113,115.742,318.891,116.334z M172.375,176.212   c-1.754-5.602-7.711-23.934-11.338-33.926c-0.139,0-0.688-0.196-0.688,0c-3.594,10.104-8.291,25.22-11.143,33.564   c-0.191,0.748,0,1.248,0.357,1.248c1.998,0.224,5.408,0.224,10.236,0.224c5.932,0,10.27,0,12.078-0.224   C172.016,177.099,172.375,176.599,172.375,176.212z M329.709,115.573c-0.738,0.508-1.094,5.268-0.387,6.185   c3.432,0.315,6.65,0.703,9.395,1.618c3.43,1.076,4.67,2.544,5.02,7.656c0.551,6.488,0.551,20.665,0.551,34.117   c0,20.91,0,33.444-0.551,43.792c0,5.732-1.84,7.819-5.02,8.761c-2.531,0.663-7.031,1.409-13.314,2.277   c-0.389,0.879-0.389,4.825,0,6.149c9.715,0,22.838-0.492,32.393-0.492c18.998,0,36.293,0.688,51.391,0.688   c7.713,0,8.619-1.195,9.361-2.859c3.188-6.175,7.334-22.623,8.234-26.698c-0.736-0.862-5.406-2.527-6.643-2.355   c-2.713,6.379-6.121,12.695-9.525,16.641c-3.949,4.815-6.533,5.479-14.58,5.479c-10.074,0-18.859-0.551-22.262-1.265   c-2.172-0.592-3.787-3.089-3.787-6.047v-31.896c0-0.333,0.688-1.717,1.203-1.717c5.469,0,19.281,0,22.543,0.467   c3.602,0.526,5.025,2.58,6.092,5.271l1.785,7.404c0.939,0.53,6.094,0.393,7-0.16c-0.158-5.054-0.357-13.432-0.357-18.286   c0-5.878,0.748-13.281,0.936-17.663c-0.936-0.723-6.311-0.94-7.186-0.387c-0.609,2.358-0.941,4.769-1.486,6.543   c-1.047,4.521-2.668,6.213-6.426,6.355c-5.795,0.414-18.17,0.159-22.9,0.159c-0.516,0-1.203-0.743-1.203-1.384   c0-12.345-0.219-23.666,0-35.315c0-0.833,0.904-3.102,1.816-3.241c2.877-0.363,20.281-0.363,24.918,0.14   c2.553,0.221,5.607,1.111,7.361,4.827c1.457,2.832,2.387,6.655,3.461,13.372c0.908,0.519,5.768,0.216,6.832-0.554   c0.549-10.177,1.268-21.755,2.525-27.411c0-0.386-0.381-0.725-0.549-0.725c-6.316,0.916-16.336,1.063-23.336,1.063h-36.178   C348.053,116.081,336.715,115.573,329.709,115.573 M463.627,115.573c-0.547,0.508-0.906,5.112-0.162,6.185   c3.596,0.531,7.188,1.028,10.047,1.814c3.594,0.88,5.02,1.936,5.217,8.146c0.35,7.106,0.35,17.476,0.35,38.393   c0,11.231-0.158,35.918-0.547,40.133c-0.16,5.021-0.902,7.564-5.568,8.626c-2.5,0.606-5.738,0.747-8.434,1.329   c-0.709,0.659-0.549,4.93,0.199,5.93c10.623,0,18.668-0.492,28.412-0.492c10.02,0,18.281,0.492,28.191,0.492   c0.713-0.88,0.908-4.822,0.713-6.149c-4.693-0.639-8.646-1.109-11.859-1.786c-3.594-0.903-5.162-3.242-5.162-9.085   c-0.246-8.489-0.246-18.474-0.246-29.982c0-0.367,0.58-1.307,0.908-1.307c4.859,0,21.221,0.227,25.555,0.61   c2.502,0.223,4.508,0.862,5.904,4.856c0.768,2.385,1.646,5.301,2.143,8.766c1.678,0.354,5.955,0.354,6.863-0.555   c0-5.63-0.361-11.763-0.361-18.721c0-7.77,0.551-13.982,0.941-18.528c-1.27-0.725-5.957-0.889-7.059-0.335   c-0.549,2.912-1.621,6.49-2.332,8.323c-1.264,3.491-2.691,4.714-7.166,5.046c-5.6,0.224-19.248,0.224-24.326,0.224   c-0.49,0-1.07-0.556-1.07-1.109c0-14.007,0-28.512,0.246-37.787c0-1.051,0.824-2.881,1.73-3.102c3.105-0.503,20.865-0.503,26.248,0   c2.904,0.412,5.438,0.882,7.162,4.38c2.035,3.473,3.104,8.6,4.393,15.292c0.904,0.712,4.865,0.385,6.262-0.364   c0.547-11.455,1.621-22.029,3.068-28.565c0.201-0.508-0.572-1.232-0.898-1.423c-2.689,0.529-8.648,1.254-21.748,1.254h-40.135   C479.768,116.081,469.723,115.573,463.627,115.573 M778.791,196.767c-0.936,4.075-5.025,20.523-8.266,26.698   c-0.74,1.664-1.594,2.859-9.365,2.859c-15.039,0-32.334-0.688-51.389-0.688c-7.385,0-16.939,0.362-25.396,0.492h-0.021   c-10.793,1.146-32.48,0.195-39.867-3.012c-4.332-2.259-7.904-5.993-9-7.659c-7.197-8.844-15.625-24.351-21.338-33.945   c-1.287-2.056-2.742-3.083-5.291-3.249h-4.256c-0.412,0-0.746,0.722-0.746,1.028c0,11.343,0.195,22.574,0.334,30.396   c0.215,5.263,1.287,7.436,5.078,8.505c3.209,0.918,4.881,1.147,9.525,1.786c0.906,0.22,0.711,5.789-0.41,6.149   c-3.875,0-12.549-0.492-26.771-0.492c-14.904,0-23.006,0.492-26.766,0.492c-0.713-0.665-1.076-5.4-0.164-6.149   c3.211-0.362,5.932-0.868,8.234-1.385c3.791-0.893,5.055-3.329,5.244-8.906c0.359-5.601,0.496-30.231,0.496-41.468   c0-17.612,0-28.674-0.303-36.633c-0.193-4.969-1.816-7.49-5.078-8.212c-2.113-0.59-5.736-1.303-9.143-1.664   c-0.742-1.026-0.363-5.778,0.549-6.139c4.305,0,18.311,0.556,25.148,0.556c13.67,0,23.555-0.556,34.148-0.556   c22.076,0,34.158,11.407,34.158,27.795c0,14.176-9.146,22.72-21.004,27.438c-0.166,0.193-0.359,1.107-0.166,1.522   c3.375,6.657,19.734,31.204,28.52,39.693c3.082,3.014,4.697,4.739,6.648,5.787c8.375,3.365,16.059,0.557,18.555-0.106   c3.211-0.941,5.055-2.993,5.055-8.761c0.551-10.348,0.551-22.882,0.551-43.792c0-13.452,0-27.629-0.551-34.117   c-0.389-5.112-1.646-6.58-5.055-7.656c-2.713-0.942-5.926-1.303-9.332-1.664c-0.742-0.871-0.359-5.583,0.387-6.139   c7,0,18.279,0.556,27.066,0.556h36.213c7,0,17.043-0.195,23.336-1.074c0.189,0,0.572,0.302,0.572,0.688   c-1.32,5.656-2.029,17.258-2.523,27.411c-1.129,0.77-5.986,1.072-6.832,0.554c-1.076-6.717-1.984-10.54-3.434-13.372   c-1.816-3.716-4.863-4.606-7.359-4.778c-4.668-0.552-22.129-0.552-25.035-0.188c-0.885,0.188-1.762,2.337-1.762,3.241   c-0.191,11.649,0,22.971,0,35.315c0,0.671,0.717,1.384,1.266,1.384c4.637,0,17.045,0.255,22.869-0.159   c3.707-0.143,5.322-1.778,6.393-6.355c0.549-1.828,0.904-4.162,1.432-6.516c0.961-0.581,6.338-0.363,7.215,0.359   c-0.162,4.328-0.877,11.785-0.877,17.61c0,4.962,0.139,13.285,0.33,18.339c-0.879,0.553-6.094,0.69-7,0.16l-1.785-7.404   c-1.1-2.69-2.527-4.744-6.117-5.271c-3.217-0.467-17.051-0.467-22.459-0.467c-0.549,0-1.266,1.33-1.266,1.717v31.896   c0,2.958,1.625,5.49,3.76,6.047c3.434,0.714,12.217,1.265,22.322,1.265c8.074,0,10.566-0.663,14.525-5.479   c3.434-3.945,6.863-10.262,9.549-16.641C773.379,194.239,778.043,195.904,778.791,196.767z M632.436,148.974   c0-15.058-8.264-25.598-22.1-25.598c-1.289,0-3.623,0.196-4.859,0.722c-0.736,0.555-1.287,2.016-1.287,2.693   c-0.334,4.037-0.334,17.435-0.334,41.43c0,0.728,0.549,1.472,1.096,1.472c7.688,0.366,16.146-0.359,19.416-2.187   C629.006,165.149,632.436,160.459,632.436,148.974z M785.623,115.573c-0.715,0.677-0.715,5.268-0.221,6.185   c4.15,0.531,6.508,0.87,9.885,1.814c3.049,1.08,4.34,3.602,4.529,7.46c0.525,7.793,0.525,16.497,0.525,35.75   c0,14.73,0,35.61-0.357,41.936c-0.525,7.262-1.648,8.769-6.262,9.877c-2.006,0.275-4.498,0.882-8.32,1.385   c-0.846,0.749-0.846,5.484,0,6.149c6.863,0,12.271-0.492,28.443-0.492c12.768,0,19.6,0.385,26.928,0.492   c0.748-0.492,1.486-5.271,0.91-6.149c-3.57-0.639-8.07-1.277-10.215-1.977c-5.049-1.242-5.244-5.354-5.404-8.784   c-0.389-7.019-0.191-20.332-0.191-42.269c0-15.591-0.197-28.463,0.191-34.123c0.16-5.269,0.355-7.822,4.338-9.255   c2.332-0.786,5.707-1.283,9.357-1.814c0.688-0.917,0.527-5.508,0-6.185c-3.811,0-9.936,0.508-27.338,0.508   C799.984,116.081,792.105,115.573,785.623,115.573"/>
</g>
</svg>